<svg xmlns="http://www.w3.org/2000/svg" width="512" height="512" viewBox="0 0 512 512" version="1.1"><path d="M 120.578 1.914 L 118.846 3.827 118.426 46.914 L 118.006 90 119.061 90 C 119.640 90, 123.253 89.482, 127.089 88.848 L 134.062 87.697 133.781 45.759 L 133.500 3.822 131.139 1.911 C 129.841 0.860, 127.323 0, 125.544 0 L 122.310 0 120.578 1.914 M 63.635 264.073 L 61 266.145 61 269.462 C 61 273.493, 63.622 276.892, 67 277.242 L 69.500 277.500 69.792 269.750 L 70.084 262 68.177 262 C 67.128 262, 65.084 262.933, 63.635 264.073 M 85 270 L 85 278 91.840 278 C 95.602 278, 106.852 277.704, 116.840 277.342 L 135 276.684 135 270 L 135 263.316 116.840 262.658 C 106.852 262.296, 95.602 262, 91.840 262 L 85 262 85 270 M 274.250 262.747 L 262 263.062 262 269.873 L 262 276.684 280.160 277.342 C 290.148 277.704, 301.398 278, 305.160 278 L 312 278 312 270 L 312 262 299.250 262.216 C 292.238 262.335, 280.988 262.574, 274.250 262.747 M 327 270 L 327 278 328.066 278 C 331.839 278, 335.923 273.713, 335.968 269.705 L 336 266.909 333.545 264.455 C 332.195 263.105, 330.170 262, 329.045 262 L 327 262 327 270 M 150 270 L 150 277 170.500 277 L 191 277 191 270 L 191 263 170.500 263 L 150 263 150 270 M 206 270 L 206 277 226.500 277 L 247 277 247 270 L 247 263 226.500 263 L 206 263 206 270 M 104 399 L 104 497 111.500 497 L 119 497 119 399 L 119 301 111.500 301 L 104 301 104 399 M 277.695 301.750 C 277.463 302.163, 277.260 346.262, 277.244 399.750 L 277.216 497 285.108 497 L 293 497 293 399 L 293 301 285.559 301 C 281.466 301, 277.928 301.337, 277.695 301.750 M 338.109 310.750 C 339.900 313.913, 341.842 317.288, 342.423 318.250 L 343.481 320 346.668 320 L 349.855 320 351.927 317.365 C 353.067 315.916, 354 313.727, 354 312.500 C 354 311.273, 353.067 309.084, 351.927 307.635 L 349.855 305 342.354 305 L 334.853 305 338.109 310.750 M 361.329 350.159 C 363.654 354.096, 366.255 357.758, 367.107 358.296 L 368.657 359.273 371.569 357.878 C 373.171 357.110, 375.053 355.290, 375.751 353.833 L 377.021 351.185 375.971 348.424 C 375.394 346.905, 374.152 345.078, 373.211 344.363 L 371.500 343.064 364.300 343.032 L 357.101 343 361.329 350.159 M 380.073 381.750 C 380.114 382.163, 382.057 385.650, 384.392 389.500 L 388.637 396.500 392.513 396.369 L 396.389 396.237 398.195 394.008 C 399.188 392.782, 400 390.458, 400 388.844 L 400 385.909 397.545 383.455 L 395.091 381 387.545 381 C 383.395 381, 380.033 381.337, 380.073 381.750 M 402.296 419.750 C 402.524 420.163, 404.627 423.762, 406.969 427.750 L 411.228 435 414.864 434.968 C 419.165 434.931, 421.534 433.355, 422.971 429.576 L 424.021 426.815 422.760 424.187 C 422.067 422.741, 420.375 420.989, 419 420.294 C 416.352 418.955, 401.591 418.474, 402.296 419.750 M 427.594 462.750 C 429.126 465.363, 431.081 468.735, 431.939 470.244 L 433.500 472.987 437.677 472.994 L 441.855 473 443.927 470.365 C 445.067 468.916, 446 466.519, 446 465.039 L 446 462.349 443.686 460.174 L 441.371 458 433.091 458 L 424.810 458 427.594 462.750" stroke="none" fill="#454045" fill-rule="evenodd"/><path d="M 107 32.500 L 107 51 112.500 51 L 118 51 118 32.500 L 118 14 112.500 14 L 107 14 107 32.500 M 297.500 59.098 C 294.750 59.626, 291.915 60.264, 291.201 60.517 L 289.902 60.975 293.618 64.237 C 298.307 68.355, 300.716 73.768, 301.570 82.109 L 302.241 88.658 312.792 86.860 C 324.097 84.934, 325.157 84.263, 324.342 79.547 C 321.473 62.963, 312.597 56.200, 297.500 59.098" stroke="none" fill="#d82e3d" fill-rule="evenodd"/><path d="M 60.200 15.200 L 59 16.400 59 32.500 L 59 48.600 60.200 49.800 L 61.400 51 84.200 51 L 107 51 107 32.500 L 107 14 84.200 14 L 61.400 14 60.200 15.200 M 287 61.171 C 285.075 61.702, 279.450 62.821, 274.500 63.658 C 233.741 70.547, 132.491 88.115, 128.500 88.990 C 125.750 89.594, 121.137 90.318, 118.249 90.600 C 88.798 93.470, 77.723 98.378, 75.182 109.688 L 74.250 113.835 75.379 120.168 L 76.509 126.500 78.504 126.757 C 79.602 126.898, 86.575 125.935, 94 124.617 C 157.988 113.256, 275.015 93.050, 294.877 89.934 L 302.253 88.777 301.576 82.169 C 300.722 73.829, 298.320 68.366, 293.739 64.344 C 291.762 62.608, 290.412 60.921, 290.739 60.594 C 291.066 60.267, 291.146 60.046, 290.917 60.102 C 290.688 60.159, 288.925 60.639, 287 61.171" stroke="none" fill="#da4a54" fill-rule="evenodd"/><path d="M 60.200 15.200 L 59 16.400 59 32.500 L 59 48.600 60.200 49.800 L 61.400 51 84.200 51 L 107 51 107 32.500 L 107 14 84.200 14 L 61.400 14 60.200 15.200 M 287 61.171 C 285.075 61.702, 279.450 62.821, 274.500 63.658 C 233.741 70.547, 132.491 88.115, 128.500 88.990 C 125.750 89.594, 121.137 90.318, 118.249 90.600 C 88.798 93.470, 77.723 98.378, 75.182 109.688 L 74.250 113.835 75.379 120.168 L 76.509 126.500 78.504 126.757 C 79.602 126.898, 86.575 125.935, 94 124.617 C 157.988 113.256, 275.015 93.050, 294.877 89.934 L 302.253 88.777 301.576 82.169 C 300.722 73.829, 298.320 68.366, 293.739 64.344 C 291.762 62.608, 290.412 60.921, 290.739 60.594 C 291.066 60.267, 291.146 60.046, 290.917 60.102 C 290.688 60.159, 288.925 60.639, 287 61.171" stroke="none" fill="#da4a54" fill-rule="evenodd"/><path d="M 270 42 L 268 44 268 54.406 L 268 64.813 269.750 64.443 C 270.712 64.240, 274.087 63.575, 277.250 62.966 L 283 61.858 283 52.929 L 283 44 281 42 L 279 40 275.500 40 L 272 40 270 42 M 2 499 L 0 501 0 504.500 L 0 508 2 510 L 4 512 256.048 512 L 508.095 512 510.548 509.354 L 513 506.708 513 503.187 C 513 501.251, 512.738 499.929, 512.417 500.250 C 512.096 500.571, 510.971 499.971, 509.917 498.917 L 508 497 256 497 L 4 497 2 499 M 0.252 504.500 C 0.263 506.700, 0.468 507.482, 0.707 506.238 C 0.946 504.994, 0.937 503.194, 0.687 502.238 C 0.437 501.282, 0.241 502.300, 0.252 504.500" stroke="none" fill="#eadfda" fill-rule="evenodd"/><path d="M 278 92.453 C 274.425 93.148, 235.388 99.945, 191.250 107.557 L 111 121.397 111 127.698 L 111 134 112.895 134 C 113.938 134, 145.991 128.600, 184.125 122 C 266.913 107.672, 263.850 107.843, 268.330 117.283 L 270 120.802 270 133.401 L 270 146 278 146 L 286 146 286 118.500 C 286 103.375, 285.663 91.042, 285.250 91.094 C 284.837 91.146, 281.575 91.757, 278 92.453 M 270 240 L 270 262 278 262 L 286 262 286 240 L 286 218 278 218 L 270 218 270 240 M 117.789 277.741 C 121.248 277.937, 126.648 277.936, 129.789 277.738 C 132.930 277.540, 130.100 277.380, 123.500 277.382 C 116.900 277.384, 114.330 277.546, 117.789 277.741 M 169.943 277.739 L 189.887 278.041 190.292 282.028 L 190.696 286.015 190.598 281.757 L 190.500 277.500 170.249 277.468 L 149.999 277.436 169.943 277.739 M 215.750 277.746 C 221.387 277.924, 230.613 277.924, 236.250 277.746 C 241.887 277.568, 237.275 277.422, 226 277.422 C 214.725 277.422, 210.113 277.568, 215.750 277.746 M 266.250 277.688 L 270 278.115 270 282.057 L 270 286 278 286 L 286 286 286 282 L 286 278 280.147 278 C 276.927 278, 271.640 277.834, 268.397 277.630 C 265.154 277.427, 264.188 277.452, 266.250 277.688" stroke="none" fill="#da8059" fill-rule="evenodd"/><path d="M 183.500 122.054 C 146.100 128.590, 114.487 133.951, 113.250 133.968 L 111 134 111 140.500 L 111 147 190.500 147 L 270 147 270 133.901 L 270 120.802 268.330 117.283 C 267.412 115.348, 265.274 112.919, 263.580 111.886 L 260.500 110.007 256 110.089 C 253.525 110.134, 220.900 115.519, 183.500 122.054 M 111 239.750 L 111 262 122.793 262 L 134.586 262 135.543 258.806 L 136.500 255.611 139.517 254.398 L 142.534 253.185 145.784 254.551 L 149.034 255.918 149.646 258.979 L 150.258 262.041 170.379 261.770 L 190.500 261.500 190.806 259.354 C 191.900 251.679, 206 252.453, 206 260.189 L 206 262 225.750 261.978 L 245.500 261.957 247 258.728 C 247.825 256.953, 249.738 254.913, 251.250 254.195 L 254 252.891 256.750 254.195 C 258.262 254.913, 260.175 256.953, 261 258.728 L 262.500 261.957 266.250 261.978 L 270 262 270 240.012 L 270 218.024 190.500 217.762 L 111 217.500 111 239.750 M 111 282 L 111 286 123 286 L 135 286 135 282 L 135 278 123 278 L 111 278 111 282 M 150 282 L 150 286 170 286 L 190 286 190 282 L 190 278 170 278 L 150 278 150 282 M 206 282 L 206 286 226 286 L 246 286 246 282 L 246 278 226 278 L 206 278 206 282 M 262 282 L 262 286 266 286 L 270 286 270 282 L 270 278 266 278 L 262 278 262 282" stroke="none" fill="#e49542" fill-rule="evenodd"/><path d="M 112 182 L 112 217 191 217 L 270 217 270 182 L 270 147 191 147 L 112 147 112 182" stroke="none" fill="#b1e4f9" fill-rule="evenodd"/><path d="M 270 182 L 270 218 277.500 218 L 285 218 285 182 L 285 146 277.500 146 L 270 146 270 182" stroke="none" fill="#75cef9" fill-rule="evenodd"/><path d="M 278 92.453 C 274.425 93.148, 235.388 99.945, 191.250 107.557 L 111 121.397 111 127.698 L 111 134 112.895 134 C 113.938 134, 145.991 128.600, 184.125 122 C 266.913 107.672, 263.850 107.843, 268.330 117.283 L 270 120.802 270 133.401 L 270 146 278 146 L 286 146 286 118.500 C 286 103.375, 285.663 91.042, 285.250 91.094 C 284.837 91.146, 281.575 91.757, 278 92.453 M 270 240 L 270 262 278 262 L 286 262 286 240 L 286 218 278 218 L 270 218 270 240 M 117.789 277.741 C 121.248 277.937, 126.648 277.936, 129.789 277.738 C 132.930 277.540, 130.100 277.380, 123.500 277.382 C 116.900 277.384, 114.330 277.546, 117.789 277.741 M 169.943 277.739 L 189.887 278.041 190.292 282.028 L 190.696 286.015 190.598 281.757 L 190.500 277.500 170.249 277.468 L 149.999 277.436 169.943 277.739 M 215.750 277.746 C 221.387 277.924, 230.613 277.924, 236.250 277.746 C 241.887 277.568, 237.275 277.422, 226 277.422 C 214.725 277.422, 210.113 277.568, 215.750 277.746 M 266.250 277.688 L 270 278.115 270 282.057 L 270 286 278 286 L 286 286 286 282 L 286 278 280.147 278 C 276.927 278, 271.640 277.834, 268.397 277.630 C 265.154 277.427, 264.188 277.452, 266.250 277.688" stroke="none" fill="#da8059" fill-rule="evenodd"/><path d="M 183.500 122.054 C 146.100 128.590, 114.487 133.951, 113.250 133.968 L 111 134 111 140.500 L 111 147 190.500 147 L 270 147 270 133.901 L 270 120.802 268.330 117.283 C 267.412 115.348, 265.274 112.919, 263.580 111.886 L 260.500 110.007 256 110.089 C 253.525 110.134, 220.900 115.519, 183.500 122.054 M 111 239.750 L 111 262 122.793 262 L 134.586 262 135.543 258.806 L 136.500 255.611 139.517 254.398 L 142.534 253.185 145.784 254.551 L 149.034 255.918 149.646 258.979 L 150.258 262.041 170.379 261.770 L 190.500 261.500 190.806 259.354 C 191.900 251.679, 206 252.453, 206 260.189 L 206 262 225.750 261.978 L 245.500 261.957 247 258.728 C 247.825 256.953, 249.738 254.913, 251.250 254.195 L 254 252.891 256.750 254.195 C 258.262 254.913, 260.175 256.953, 261 258.728 L 262.500 261.957 266.250 261.978 L 270 262 270 240.012 L 270 218.024 190.500 217.762 L 111 217.500 111 239.750 M 111 282 L 111 286 123 286 L 135 286 135 282 L 135 278 123 278 L 111 278 111 282 M 150 282 L 150 286 170 286 L 190 286 190 282 L 190 278 170 278 L 150 278 150 282 M 206 282 L 206 286 226 286 L 246 286 246 282 L 246 278 226 278 L 206 278 206 282 M 262 282 L 262 286 266 286 L 270 286 270 282 L 270 278 266 278 L 262 278 262 282" stroke="none" fill="#e49542" fill-rule="evenodd"/><path d="M 118.417 32.500 C 118.418 42.950, 118.566 47.089, 118.746 41.698 C 118.926 36.307, 118.925 27.757, 118.744 22.698 C 118.563 17.639, 118.416 22.050, 118.417 32.500 M 74.465 253.961 C 73.346 254.409, 71.864 255.460, 71.170 256.295 L 69.910 257.813 69.410 276.938 L 68.909 296.063 71.818 298.972 L 74.728 301.882 194.506 301.869 L 314.285 301.856 315.501 303.178 C 316.170 303.905, 341.827 347.250, 372.517 399.500 C 403.207 451.750, 428.843 495.081, 429.486 495.791 L 430.654 497.083 439.317 496.791 L 447.981 496.500 441.078 485 C 432.425 470.583, 427.104 461.595, 418.582 447 C 414.889 440.675, 409.716 431.900, 407.088 427.500 C 404.459 423.100, 400.150 415.675, 397.510 411 C 394.871 406.325, 390.824 399.575, 388.518 396 C 386.211 392.425, 382.617 386.350, 380.532 382.500 C 377.194 376.336, 372.521 368.428, 362.704 352.329 C 361.166 349.807, 358.409 344.989, 356.578 341.622 C 354.746 338.255, 351.181 332.125, 348.656 328 C 342.735 318.327, 337.543 309.536, 331.691 299.273 L 327 291.046 327 274.957 C 327 257.453, 326.585 255.748, 321.931 254.126 L 318.820 253.041 316.031 254.484 C 312.198 256.466, 312 257.350, 312 272.443 L 312 285.722 287.392 286.453 L 262.784 287.184 261.864 286.264 L 260.944 285.344 261.620 274.201 L 262.297 263.059 274.399 262.746 L 286.500 262.432 273.750 262.216 L 261 262 261 260.073 C 261 257.854, 256.557 254, 254 254 C 251.443 254, 247 257.854, 247 260.073 L 247 262 226.513 262 L 206.027 262 204.579 258.536 L 203.132 255.071 200.492 254.409 C 196.828 253.489, 193.021 255.483, 191.686 259.022 L 190.562 262 170.500 262 L 150.438 262 149.314 259.022 C 148.696 257.384, 147.004 255.503, 145.555 254.843 L 142.919 253.642 140.210 254.580 L 137.500 255.517 136.082 258.729 L 134.664 261.941 122.582 262.254 L 110.500 262.568 122.750 262.784 L 135 263 135 275.158 L 135 287.316 116.840 286.658 C 106.852 286.296, 95.602 286, 91.840 286 L 85 286 85 272.556 L 85 259.112 82.750 256.637 C 80.110 253.732, 77.300 252.825, 74.465 253.961 M 150 275 L 150 287 170.500 287 L 191 287 191 275 L 191 263 170.500 263 L 150 263 150 275 M 206 275 L 206 287 226.500 287 L 247 287 247 275 L 247 263 226.500 263 L 206 263 206 275 M 119 330.994 L 119 339 198.542 339 L 278.084 339 277.792 331.250 L 277.500 323.500 198.250 323.244 L 119 322.988 119 330.994 M 99 326 L 97 328 97 331.326 L 97 334.651 99.314 336.826 C 100.587 338.022, 102.162 339, 102.814 339 L 104 339 104 331.500 L 104 324 102.500 324 C 101.675 324, 100.100 324.900, 99 326 M 293 331.500 L 293 339 294.045 339 C 296.010 339, 300 334.095, 300 331.680 C 300 328.850, 296.481 324, 294.427 324 L 293 324 293 331.500 M 119 366.303 L 119 375.676 151.627 397.424 L 184.254 419.173 151.654 440.836 L 119.053 462.500 119.027 471.750 C 119.012 476.837, 119.229 481, 119.510 481 C 119.790 481, 137.560 469.300, 159 455 C 180.440 440.700, 198.238 429, 198.552 429 C 198.866 429, 216.584 440.700, 237.924 455 C 283.199 485.339, 278.144 483.215, 277.788 471.750 L 277.500 462.500 245.134 440.829 L 212.768 419.158 245.384 397.417 L 278 375.676 278 366.279 L 278 356.882 276.750 357.629 C 276.063 358.039, 258.175 369.918, 237 384.026 L 198.500 409.677 160.500 384.286 C 139.600 370.320, 121.713 358.452, 120.750 357.912 L 119 356.930 119 366.303" stroke="none" fill="#544f57" fill-rule="evenodd"/><path d="M 120.578 1.914 L 118.846 3.827 118.426 46.914 L 118.006 90 119.061 90 C 119.640 90, 123.253 89.482, 127.089 88.848 L 134.062 87.697 133.781 45.759 L 133.500 3.822 131.139 1.911 C 129.841 0.860, 127.323 0, 125.544 0 L 122.310 0 120.578 1.914 M 63.635 264.073 L 61 266.145 61 269.462 C 61 273.493, 63.622 276.892, 67 277.242 L 69.500 277.500 69.792 269.750 L 70.084 262 68.177 262 C 67.128 262, 65.084 262.933, 63.635 264.073 M 85 270 L 85 278 91.840 278 C 95.602 278, 106.852 277.704, 116.840 277.342 L 135 276.684 135 270 L 135 263.316 116.840 262.658 C 106.852 262.296, 95.602 262, 91.840 262 L 85 262 85 270 M 274.250 262.747 L 262 263.062 262 269.873 L 262 276.684 280.160 277.342 C 290.148 277.704, 301.398 278, 305.160 278 L 312 278 312 270 L 312 262 299.250 262.216 C 292.238 262.335, 280.988 262.574, 274.250 262.747 M 327 270 L 327 278 328.066 278 C 331.839 278, 335.923 273.713, 335.968 269.705 L 336 266.909 333.545 264.455 C 332.195 263.105, 330.170 262, 329.045 262 L 327 262 327 270 M 150 270 L 150 277 170.500 277 L 191 277 191 270 L 191 263 170.500 263 L 150 263 150 270 M 206 270 L 206 277 226.500 277 L 247 277 247 270 L 247 263 226.500 263 L 206 263 206 270 M 104 399 L 104 497 111.500 497 L 119 497 119 399 L 119 301 111.500 301 L 104 301 104 399 M 277.695 301.750 C 277.463 302.163, 277.260 346.262, 277.244 399.750 L 277.216 497 285.108 497 L 293 497 293 399 L 293 301 285.559 301 C 281.466 301, 277.928 301.337, 277.695 301.750 M 338.109 310.750 C 339.900 313.913, 341.842 317.288, 342.423 318.250 L 343.481 320 346.668 320 L 349.855 320 351.927 317.365 C 353.067 315.916, 354 313.727, 354 312.500 C 354 311.273, 353.067 309.084, 351.927 307.635 L 349.855 305 342.354 305 L 334.853 305 338.109 310.750 M 361.329 350.159 C 363.654 354.096, 366.255 357.758, 367.107 358.296 L 368.657 359.273 371.569 357.878 C 373.171 357.110, 375.053 355.290, 375.751 353.833 L 377.021 351.185 375.971 348.424 C 375.394 346.905, 374.152 345.078, 373.211 344.363 L 371.500 343.064 364.300 343.032 L 357.101 343 361.329 350.159 M 380.073 381.750 C 380.114 382.163, 382.057 385.650, 384.392 389.500 L 388.637 396.500 392.513 396.369 L 396.389 396.237 398.195 394.008 C 399.188 392.782, 400 390.458, 400 388.844 L 400 385.909 397.545 383.455 L 395.091 381 387.545 381 C 383.395 381, 380.033 381.337, 380.073 381.750 M 402.296 419.750 C 402.524 420.163, 404.627 423.762, 406.969 427.750 L 411.228 435 414.864 434.968 C 419.165 434.931, 421.534 433.355, 422.971 429.576 L 424.021 426.815 422.760 424.187 C 422.067 422.741, 420.375 420.989, 419 420.294 C 416.352 418.955, 401.591 418.474, 402.296 419.750 M 427.594 462.750 C 429.126 465.363, 431.081 468.735, 431.939 470.244 L 433.500 472.987 437.677 472.994 L 441.855 473 443.927 470.365 C 445.067 468.916, 446 466.519, 446 465.039 L 446 462.349 443.686 460.174 L 441.371 458 433.091 458 L 424.810 458 427.594 462.750" stroke="none" fill="#454045" fill-rule="evenodd"/><path d="M 111.480 182 L 111.500 217.500 190.750 217.509 L 270 217.518 191.013 217.253 L 112.026 216.988 111.743 181.744 L 111.461 146.500 111.480 182 M 285.451 182 C 285.451 201.525, 285.585 209.513, 285.748 199.750 C 285.912 189.988, 285.912 174.013, 285.748 164.250 C 285.585 154.488, 285.451 162.475, 285.451 182" stroke="none" fill="#c6dfef" fill-rule="evenodd"/><path d="M 246 281.479 L 246 285.959 225.750 286.251 L 205.500 286.544 226.250 286.772 L 247 287 247 282 C 247 279.250, 246.775 277, 246.500 277 C 246.225 277, 246 279.016, 246 281.479 M 261.398 281.500 L 261.500 286.500 273 286.548 L 284.500 286.595 273.304 286.266 L 262.107 285.937 261.701 281.219 L 261.296 276.500 261.398 281.500 M 273.750 277.732 C 276.087 277.943, 279.913 277.943, 282.250 277.732 C 284.587 277.522, 282.675 277.349, 278 277.349 C 273.325 277.349, 271.413 277.522, 273.750 277.732 M 116.750 286.740 C 120.188 286.936, 125.813 286.936, 129.250 286.740 C 132.688 286.545, 129.875 286.385, 123 286.385 C 116.125 286.385, 113.313 286.545, 116.750 286.740 M 160.304 286.747 C 166.247 286.924, 175.697 286.923, 181.304 286.745 C 186.912 286.567, 182.050 286.422, 170.500 286.423 C 158.950 286.424, 154.362 286.570, 160.304 286.747" stroke="none" fill="#905d4d" fill-rule="evenodd"/></svg>