<?xml version="1.0" encoding="UTF-8"?>
<svg xmlns="http://www.w3.org/2000/svg" xmlns:xlink="http://www.w3.org/1999/xlink" width="16px" height="16px" viewBox="0 0 16 16" version="1.1">
<g id="surface1">
<path style=" stroke:none;fill-rule:evenodd;fill:rgb(27.058824%,25.098039%,27.058824%);fill-opacity:1;" d="M 3.769531 0.0585938 L 3.714844 0.121094 L 3.699219 1.464844 L 3.6875 2.8125 L 3.71875 2.8125 C 3.738281 2.8125 3.851562 2.796875 3.972656 2.777344 L 4.1875 2.742188 L 4.179688 1.429688 L 4.171875 0.121094 L 4.097656 0.0585938 C 4.058594 0.0273438 3.980469 0 3.921875 0 L 3.820312 0 L 3.769531 0.0585938 M 1.988281 8.253906 L 1.90625 8.316406 L 1.90625 8.421875 C 1.90625 8.546875 1.988281 8.652344 2.09375 8.664062 L 2.171875 8.671875 L 2.179688 8.429688 L 2.191406 8.1875 L 2.128906 8.1875 C 2.097656 8.1875 2.035156 8.214844 1.988281 8.253906 M 2.65625 8.4375 L 2.65625 8.6875 L 2.871094 8.6875 C 2.988281 8.6875 3.339844 8.679688 3.652344 8.667969 L 4.21875 8.644531 L 4.21875 8.230469 L 3.652344 8.207031 C 3.339844 8.195312 2.988281 8.1875 2.871094 8.1875 L 2.65625 8.1875 L 2.65625 8.4375 M 8.570312 8.210938 L 8.1875 8.21875 L 8.1875 8.644531 L 8.753906 8.667969 C 9.066406 8.679688 9.417969 8.6875 9.535156 8.6875 L 9.75 8.6875 L 9.75 8.1875 L 9.351562 8.195312 C 9.132812 8.199219 8.78125 8.207031 8.570312 8.210938 M 10.21875 8.4375 L 10.21875 8.6875 L 10.253906 8.6875 C 10.371094 8.6875 10.496094 8.554688 10.5 8.429688 L 10.5 8.339844 L 10.421875 8.265625 C 10.382812 8.222656 10.316406 8.1875 10.28125 8.1875 L 10.21875 8.1875 L 10.21875 8.4375 M 4.6875 8.4375 L 4.6875 8.65625 L 5.96875 8.65625 L 5.96875 8.21875 L 4.6875 8.21875 L 4.6875 8.4375 M 6.4375 8.4375 L 6.4375 8.65625 L 7.71875 8.65625 L 7.71875 8.21875 L 6.4375 8.21875 L 6.4375 8.4375 M 3.25 12.46875 L 3.25 15.53125 L 3.71875 15.53125 L 3.71875 9.40625 L 3.25 9.40625 L 3.25 12.46875 M 8.679688 9.429688 C 8.671875 9.441406 8.664062 10.820312 8.664062 12.492188 L 8.664062 15.53125 L 9.15625 15.53125 L 9.15625 9.40625 L 8.921875 9.40625 C 8.796875 9.40625 8.683594 9.417969 8.679688 9.429688 M 10.566406 9.710938 C 10.621094 9.808594 10.683594 9.914062 10.699219 9.945312 L 10.734375 10 L 10.933594 10 L 10.996094 9.917969 C 11.035156 9.871094 11.0625 9.804688 11.0625 9.765625 C 11.0625 9.726562 11.035156 9.660156 10.996094 9.613281 L 10.933594 9.53125 L 10.464844 9.53125 L 10.566406 9.710938 M 11.292969 10.941406 C 11.363281 11.066406 11.445312 11.179688 11.472656 11.195312 L 11.519531 11.226562 L 11.613281 11.183594 C 11.660156 11.160156 11.71875 11.101562 11.742188 11.058594 L 11.78125 10.972656 L 11.75 10.886719 C 11.730469 10.839844 11.691406 10.785156 11.664062 10.761719 L 11.609375 10.722656 L 11.382812 10.71875 L 11.160156 10.71875 L 11.292969 10.941406 M 11.878906 11.929688 C 11.878906 11.941406 11.9375 12.050781 12.011719 12.171875 L 12.144531 12.390625 L 12.386719 12.382812 L 12.445312 12.3125 C 12.476562 12.273438 12.5 12.203125 12.5 12.152344 L 12.5 12.058594 L 12.421875 11.984375 L 12.347656 11.90625 L 12.109375 11.90625 C 11.980469 11.90625 11.875 11.917969 11.878906 11.929688 M 12.570312 13.117188 C 12.578125 13.128906 12.644531 13.242188 12.71875 13.367188 L 12.851562 13.59375 L 12.964844 13.59375 C 13.097656 13.589844 13.171875 13.542969 13.21875 13.425781 L 13.25 13.339844 L 13.210938 13.253906 C 13.191406 13.210938 13.136719 13.15625 13.09375 13.132812 C 13.011719 13.09375 12.550781 13.078125 12.570312 13.117188 M 13.363281 14.460938 C 13.410156 14.542969 13.472656 14.648438 13.5 14.695312 L 13.546875 14.78125 L 13.808594 14.78125 L 13.871094 14.699219 C 13.910156 14.652344 13.9375 14.578125 13.9375 14.53125 L 13.9375 14.449219 L 13.863281 14.378906 L 13.792969 14.3125 L 13.273438 14.3125 L 13.363281 14.460938 "/>
<path style=" stroke:none;fill-rule:evenodd;fill:rgb(84.705882%,18.039216%,23.921569%);fill-opacity:1;" d="M 3.34375 1.015625 L 3.34375 1.59375 L 3.6875 1.59375 L 3.6875 0.4375 L 3.34375 0.4375 L 3.34375 1.015625 M 9.296875 1.847656 C 9.210938 1.863281 9.121094 1.882812 9.101562 1.890625 L 9.058594 1.90625 L 9.175781 2.007812 C 9.320312 2.136719 9.398438 2.304688 9.425781 2.566406 L 9.445312 2.769531 L 9.773438 2.714844 C 10.128906 2.652344 10.160156 2.632812 10.136719 2.484375 C 10.046875 1.96875 9.769531 1.757812 9.296875 1.847656 "/>
<path style=" stroke:none;fill-rule:evenodd;fill:rgb(85.490196%,29.019608%,32.941176%);fill-opacity:1;" d="M 1.882812 0.476562 L 1.84375 0.511719 L 1.84375 1.519531 L 1.882812 1.554688 L 1.917969 1.59375 L 3.34375 1.59375 L 3.34375 0.4375 L 1.917969 0.4375 L 1.882812 0.476562 M 8.96875 1.910156 C 8.910156 1.929688 8.734375 1.964844 8.578125 1.988281 C 7.304688 2.203125 4.140625 2.753906 4.015625 2.78125 C 3.929688 2.800781 3.785156 2.824219 3.695312 2.832031 C 2.773438 2.921875 2.429688 3.074219 2.347656 3.429688 L 2.320312 3.558594 L 2.355469 3.753906 L 2.390625 3.953125 L 2.453125 3.960938 C 2.488281 3.964844 2.707031 3.933594 2.9375 3.894531 C 4.9375 3.539062 8.59375 2.90625 9.214844 2.808594 L 9.445312 2.773438 L 9.425781 2.566406 C 9.398438 2.308594 9.324219 2.136719 9.179688 2.011719 C 9.117188 1.957031 9.074219 1.902344 9.085938 1.894531 C 9.097656 1.882812 9.097656 1.875 9.089844 1.878906 C 9.085938 1.878906 9.027344 1.894531 8.96875 1.910156 "/>
<path style=" stroke:none;fill-rule:evenodd;fill:rgb(85.490196%,29.019608%,32.941176%);fill-opacity:1;" d="M 1.882812 0.476562 L 1.84375 0.511719 L 1.84375 1.519531 L 1.882812 1.554688 L 1.917969 1.59375 L 3.34375 1.59375 L 3.34375 0.4375 L 1.917969 0.4375 L 1.882812 0.476562 M 8.96875 1.910156 C 8.910156 1.929688 8.734375 1.964844 8.578125 1.988281 C 7.304688 2.203125 4.140625 2.753906 4.015625 2.78125 C 3.929688 2.800781 3.785156 2.824219 3.695312 2.832031 C 2.773438 2.921875 2.429688 3.074219 2.347656 3.429688 L 2.320312 3.558594 L 2.355469 3.753906 L 2.390625 3.953125 L 2.453125 3.960938 C 2.488281 3.964844 2.707031 3.933594 2.9375 3.894531 C 4.9375 3.539062 8.59375 2.90625 9.214844 2.808594 L 9.445312 2.773438 L 9.425781 2.566406 C 9.398438 2.308594 9.324219 2.136719 9.179688 2.011719 C 9.117188 1.957031 9.074219 1.902344 9.085938 1.894531 C 9.097656 1.882812 9.097656 1.875 9.089844 1.878906 C 9.085938 1.878906 9.027344 1.894531 8.96875 1.910156 "/>
<path style=" stroke:none;fill-rule:evenodd;fill:rgb(91.764706%,87.45098%,85.490196%);fill-opacity:1;" d="M 8.4375 1.3125 L 8.375 1.375 L 8.375 2.027344 L 8.429688 2.015625 C 8.460938 2.007812 8.566406 1.988281 8.664062 1.96875 L 8.84375 1.933594 L 8.84375 1.375 L 8.71875 1.25 L 8.5 1.25 L 8.4375 1.3125 M 0.0625 15.59375 L 0 15.65625 L 0 15.875 L 0.125 16 L 15.878906 16 L 15.953125 15.917969 L 16.03125 15.835938 L 16.03125 15.722656 C 16.03125 15.664062 16.023438 15.621094 16.011719 15.632812 C 16.003906 15.644531 15.96875 15.625 15.933594 15.589844 L 15.875 15.53125 L 0.125 15.53125 L 0.0625 15.59375 M 0.0078125 15.765625 C 0.0078125 15.835938 0.015625 15.859375 0.0234375 15.820312 C 0.03125 15.78125 0.0273438 15.726562 0.0195312 15.695312 C 0.0117188 15.664062 0.0078125 15.695312 0.0078125 15.765625 "/>
<path style=" stroke:none;fill-rule:evenodd;fill:rgb(85.490196%,50.196078%,34.901961%);fill-opacity:1;" d="M 8.6875 2.890625 C 8.574219 2.910156 7.355469 3.125 5.976562 3.359375 L 3.46875 3.792969 L 3.46875 4.1875 L 3.527344 4.1875 C 3.5625 4.1875 4.5625 4.019531 5.753906 3.8125 C 8.339844 3.363281 8.246094 3.371094 8.386719 3.664062 L 8.4375 3.773438 L 8.4375 4.5625 L 8.9375 4.5625 L 8.9375 3.703125 C 8.9375 3.230469 8.925781 2.84375 8.914062 2.847656 C 8.902344 2.847656 8.800781 2.867188 8.6875 2.890625 M 8.4375 7.5 L 8.4375 8.1875 L 8.9375 8.1875 L 8.9375 6.8125 L 8.4375 6.8125 L 8.4375 7.5 M 3.679688 8.679688 C 3.789062 8.683594 3.957031 8.683594 4.054688 8.679688 C 4.152344 8.671875 4.066406 8.667969 3.859375 8.667969 C 3.652344 8.667969 3.574219 8.671875 3.679688 8.679688 M 5.3125 8.679688 L 5.933594 8.6875 L 5.945312 8.8125 L 5.960938 8.9375 L 5.953125 8.671875 L 5.320312 8.671875 L 4.6875 8.667969 L 5.3125 8.679688 M 6.742188 8.679688 C 6.917969 8.683594 7.207031 8.683594 7.382812 8.679688 C 7.558594 8.675781 7.414062 8.667969 7.0625 8.667969 C 6.710938 8.667969 6.566406 8.675781 6.742188 8.679688 M 8.320312 8.679688 L 8.4375 8.691406 L 8.4375 8.9375 L 8.9375 8.9375 L 8.9375 8.6875 L 8.753906 8.6875 C 8.652344 8.6875 8.488281 8.683594 8.386719 8.675781 C 8.285156 8.667969 8.257812 8.671875 8.320312 8.679688 "/>
<path style=" stroke:none;fill-rule:evenodd;fill:rgb(89.411765%,58.431373%,25.882353%);fill-opacity:1;" d="M 5.734375 3.8125 C 4.566406 4.019531 3.578125 4.1875 3.539062 4.1875 L 3.46875 4.1875 L 3.46875 4.59375 L 8.4375 4.59375 L 8.4375 3.773438 L 8.386719 3.664062 C 8.355469 3.605469 8.289062 3.527344 8.238281 3.496094 L 8.140625 3.4375 L 8 3.441406 C 7.921875 3.441406 6.902344 3.609375 5.734375 3.8125 M 3.46875 7.492188 L 3.46875 8.1875 L 4.207031 8.1875 L 4.234375 8.085938 L 4.265625 7.988281 L 4.453125 7.910156 L 4.65625 7.996094 L 4.675781 8.09375 L 4.695312 8.1875 L 5.953125 8.171875 L 5.960938 8.105469 C 5.996094 7.863281 6.4375 7.890625 6.4375 8.132812 L 6.4375 8.1875 L 7.671875 8.1875 L 7.71875 8.085938 C 7.746094 8.03125 7.804688 7.964844 7.851562 7.945312 L 7.9375 7.902344 L 8.023438 7.945312 C 8.070312 7.964844 8.128906 8.03125 8.15625 8.085938 L 8.203125 8.1875 L 8.4375 8.1875 L 8.4375 6.8125 L 3.46875 6.796875 L 3.46875 7.492188 M 3.46875 8.8125 L 3.46875 8.9375 L 4.21875 8.9375 L 4.21875 8.6875 L 3.46875 8.6875 L 3.46875 8.8125 M 4.6875 8.8125 L 4.6875 8.9375 L 5.9375 8.9375 L 5.9375 8.6875 L 4.6875 8.6875 L 4.6875 8.8125 M 6.4375 8.8125 L 6.4375 8.9375 L 7.6875 8.9375 L 7.6875 8.6875 L 6.4375 8.6875 L 6.4375 8.8125 M 8.1875 8.8125 L 8.1875 8.9375 L 8.4375 8.9375 L 8.4375 8.6875 L 8.1875 8.6875 L 8.1875 8.8125 "/>
<path style=" stroke:none;fill-rule:evenodd;fill:rgb(69.411765%,89.411765%,97.647059%);fill-opacity:1;" d="M 3.5 5.6875 L 3.5 6.78125 L 8.4375 6.78125 L 8.4375 4.59375 L 3.5 4.59375 L 3.5 5.6875 "/>
<path style=" stroke:none;fill-rule:evenodd;fill:rgb(45.882353%,80.784314%,97.647059%);fill-opacity:1;" d="M 8.4375 5.6875 L 8.4375 6.8125 L 8.90625 6.8125 L 8.90625 4.5625 L 8.4375 4.5625 L 8.4375 5.6875 "/>
<path style=" stroke:none;fill-rule:evenodd;fill:rgb(85.490196%,50.196078%,34.901961%);fill-opacity:1;" d="M 8.6875 2.890625 C 8.574219 2.910156 7.355469 3.125 5.976562 3.359375 L 3.46875 3.792969 L 3.46875 4.1875 L 3.527344 4.1875 C 3.5625 4.1875 4.5625 4.019531 5.753906 3.8125 C 8.339844 3.363281 8.246094 3.371094 8.386719 3.664062 L 8.4375 3.773438 L 8.4375 4.5625 L 8.9375 4.5625 L 8.9375 3.703125 C 8.9375 3.230469 8.925781 2.84375 8.914062 2.847656 C 8.902344 2.847656 8.800781 2.867188 8.6875 2.890625 M 8.4375 7.5 L 8.4375 8.1875 L 8.9375 8.1875 L 8.9375 6.8125 L 8.4375 6.8125 L 8.4375 7.5 M 3.679688 8.679688 C 3.789062 8.683594 3.957031 8.683594 4.054688 8.679688 C 4.152344 8.671875 4.066406 8.667969 3.859375 8.667969 C 3.652344 8.667969 3.574219 8.671875 3.679688 8.679688 M 5.3125 8.679688 L 5.933594 8.6875 L 5.945312 8.8125 L 5.960938 8.9375 L 5.953125 8.671875 L 5.320312 8.671875 L 4.6875 8.667969 L 5.3125 8.679688 M 6.742188 8.679688 C 6.917969 8.683594 7.207031 8.683594 7.382812 8.679688 C 7.558594 8.675781 7.414062 8.667969 7.0625 8.667969 C 6.710938 8.667969 6.566406 8.675781 6.742188 8.679688 M 8.320312 8.679688 L 8.4375 8.691406 L 8.4375 8.9375 L 8.9375 8.9375 L 8.9375 8.6875 L 8.753906 8.6875 C 8.652344 8.6875 8.488281 8.683594 8.386719 8.675781 C 8.285156 8.667969 8.257812 8.671875 8.320312 8.679688 "/>
<path style=" stroke:none;fill-rule:evenodd;fill:rgb(89.411765%,58.431373%,25.882353%);fill-opacity:1;" d="M 5.734375 3.8125 C 4.566406 4.019531 3.578125 4.1875 3.539062 4.1875 L 3.46875 4.1875 L 3.46875 4.59375 L 8.4375 4.59375 L 8.4375 3.773438 L 8.386719 3.664062 C 8.355469 3.605469 8.289062 3.527344 8.238281 3.496094 L 8.140625 3.4375 L 8 3.441406 C 7.921875 3.441406 6.902344 3.609375 5.734375 3.8125 M 3.46875 7.492188 L 3.46875 8.1875 L 4.207031 8.1875 L 4.234375 8.085938 L 4.265625 7.988281 L 4.453125 7.910156 L 4.65625 7.996094 L 4.675781 8.09375 L 4.695312 8.1875 L 5.953125 8.171875 L 5.960938 8.105469 C 5.996094 7.863281 6.4375 7.890625 6.4375 8.132812 L 6.4375 8.1875 L 7.671875 8.1875 L 7.71875 8.085938 C 7.746094 8.03125 7.804688 7.964844 7.851562 7.945312 L 7.9375 7.902344 L 8.023438 7.945312 C 8.070312 7.964844 8.128906 8.03125 8.15625 8.085938 L 8.203125 8.1875 L 8.4375 8.1875 L 8.4375 6.8125 L 3.46875 6.796875 L 3.46875 7.492188 M 3.46875 8.8125 L 3.46875 8.9375 L 4.21875 8.9375 L 4.21875 8.6875 L 3.46875 8.6875 L 3.46875 8.8125 M 4.6875 8.8125 L 4.6875 8.9375 L 5.9375 8.9375 L 5.9375 8.6875 L 4.6875 8.6875 L 4.6875 8.8125 M 6.4375 8.8125 L 6.4375 8.9375 L 7.6875 8.9375 L 7.6875 8.6875 L 6.4375 8.6875 L 6.4375 8.8125 M 8.1875 8.8125 L 8.1875 8.9375 L 8.4375 8.9375 L 8.4375 8.6875 L 8.1875 8.6875 L 8.1875 8.8125 "/>
<path style=" stroke:none;fill-rule:evenodd;fill:rgb(32.941176%,30.980392%,34.117647%);fill-opacity:1;" d="M 3.699219 1.015625 C 3.699219 1.34375 3.707031 1.472656 3.710938 1.304688 C 3.714844 1.132812 3.714844 0.867188 3.710938 0.710938 C 3.707031 0.550781 3.699219 0.6875 3.699219 1.015625 M 2.328125 7.9375 C 2.292969 7.949219 2.246094 7.984375 2.222656 8.007812 L 2.183594 8.058594 L 2.152344 9.253906 L 2.246094 9.34375 L 2.335938 9.433594 L 9.820312 9.433594 L 9.859375 9.472656 C 9.878906 9.496094 10.683594 10.851562 11.640625 12.484375 C 12.601562 14.117188 13.402344 15.472656 13.421875 15.492188 L 13.457031 15.535156 L 13.730469 15.523438 L 14 15.515625 L 13.785156 15.15625 C 13.511719 14.707031 13.347656 14.425781 13.082031 13.96875 C 12.964844 13.769531 12.804688 13.496094 12.722656 13.359375 C 12.640625 13.222656 12.503906 12.988281 12.421875 12.84375 C 12.339844 12.699219 12.214844 12.488281 12.140625 12.375 C 12.070312 12.261719 11.957031 12.074219 11.890625 11.953125 C 11.789062 11.761719 11.640625 11.511719 11.335938 11.011719 C 11.285156 10.929688 11.199219 10.78125 11.144531 10.675781 C 11.085938 10.570312 10.972656 10.378906 10.894531 10.25 C 10.710938 9.949219 10.546875 9.671875 10.367188 9.351562 L 10.21875 9.09375 L 10.21875 8.59375 C 10.21875 8.046875 10.207031 7.992188 10.058594 7.941406 L 9.964844 7.90625 L 9.875 7.953125 C 9.757812 8.015625 9.75 8.042969 9.75 8.515625 L 9.75 8.929688 L 8.980469 8.953125 L 8.210938 8.972656 L 8.15625 8.917969 L 8.175781 8.570312 L 8.195312 8.21875 L 8.574219 8.210938 L 8.953125 8.199219 L 8.554688 8.195312 L 8.15625 8.1875 L 8.15625 8.128906 C 8.15625 8.058594 8.015625 7.9375 7.9375 7.9375 C 7.859375 7.9375 7.71875 8.058594 7.71875 8.128906 L 7.71875 8.1875 L 6.4375 8.1875 L 6.394531 8.078125 L 6.347656 7.972656 L 6.265625 7.949219 C 6.152344 7.921875 6.03125 7.984375 5.988281 8.09375 L 5.953125 8.1875 L 4.703125 8.1875 L 4.667969 8.09375 C 4.648438 8.042969 4.59375 7.984375 4.546875 7.964844 L 4.464844 7.925781 L 4.382812 7.957031 L 4.296875 7.984375 L 4.253906 8.085938 L 4.207031 8.1875 L 3.832031 8.195312 L 3.453125 8.207031 L 3.835938 8.210938 L 4.21875 8.21875 L 4.21875 8.980469 L 3.652344 8.957031 C 3.339844 8.945312 2.988281 8.9375 2.871094 8.9375 L 2.65625 8.9375 L 2.65625 8.097656 L 2.585938 8.019531 C 2.503906 7.929688 2.414062 7.902344 2.328125 7.9375 M 4.6875 8.59375 L 4.6875 8.96875 L 5.96875 8.96875 L 5.96875 8.21875 L 4.6875 8.21875 L 4.6875 8.59375 M 6.4375 8.59375 L 6.4375 8.96875 L 7.71875 8.96875 L 7.71875 8.21875 L 6.4375 8.21875 L 6.4375 8.59375 M 3.71875 10.34375 L 3.71875 10.59375 L 8.691406 10.59375 L 8.679688 10.351562 L 8.671875 10.109375 L 3.71875 10.09375 L 3.71875 10.34375 M 3.09375 10.1875 L 3.03125 10.25 L 3.03125 10.457031 L 3.105469 10.527344 C 3.144531 10.5625 3.191406 10.59375 3.214844 10.59375 L 3.25 10.59375 L 3.25 10.125 L 3.203125 10.125 C 3.175781 10.125 3.128906 10.152344 3.09375 10.1875 M 9.15625 10.359375 L 9.15625 10.59375 L 9.1875 10.59375 C 9.25 10.59375 9.375 10.441406 9.375 10.363281 C 9.375 10.277344 9.265625 10.125 9.199219 10.125 L 9.15625 10.125 L 9.15625 10.359375 M 3.71875 11.445312 L 3.71875 11.738281 L 5.757812 13.097656 L 4.738281 13.777344 L 3.71875 14.453125 L 3.71875 14.742188 C 3.71875 14.902344 3.726562 15.03125 3.734375 15.03125 C 3.742188 15.03125 4.296875 14.664062 4.96875 14.21875 C 5.640625 13.773438 6.195312 13.40625 6.203125 13.40625 C 6.214844 13.40625 6.769531 13.773438 7.433594 14.21875 C 8.851562 15.167969 8.691406 15.101562 8.679688 14.742188 L 8.671875 14.453125 L 7.660156 13.777344 L 6.648438 13.097656 L 8.6875 11.738281 L 8.6875 11.152344 L 8.648438 11.175781 C 8.628906 11.1875 8.066406 11.558594 7.40625 12 L 6.203125 12.800781 L 5.015625 12.007812 C 4.363281 11.574219 3.804688 11.203125 3.773438 11.183594 L 3.71875 11.152344 L 3.71875 11.445312 "/>
<path style=" stroke:none;fill-rule:evenodd;fill:rgb(27.058824%,25.098039%,27.058824%);fill-opacity:1;" d="M 3.769531 0.0585938 L 3.714844 0.121094 L 3.699219 1.464844 L 3.6875 2.8125 L 3.71875 2.8125 C 3.738281 2.8125 3.851562 2.796875 3.972656 2.777344 L 4.1875 2.742188 L 4.179688 1.429688 L 4.171875 0.121094 L 4.097656 0.0585938 C 4.058594 0.0273438 3.980469 0 3.921875 0 L 3.820312 0 L 3.769531 0.0585938 M 1.988281 8.253906 L 1.90625 8.316406 L 1.90625 8.421875 C 1.90625 8.546875 1.988281 8.652344 2.09375 8.664062 L 2.171875 8.671875 L 2.179688 8.429688 L 2.191406 8.1875 L 2.128906 8.1875 C 2.097656 8.1875 2.035156 8.214844 1.988281 8.253906 M 2.65625 8.4375 L 2.65625 8.6875 L 2.871094 8.6875 C 2.988281 8.6875 3.339844 8.679688 3.652344 8.667969 L 4.21875 8.644531 L 4.21875 8.230469 L 3.652344 8.207031 C 3.339844 8.195312 2.988281 8.1875 2.871094 8.1875 L 2.65625 8.1875 L 2.65625 8.4375 M 8.570312 8.210938 L 8.1875 8.21875 L 8.1875 8.644531 L 8.753906 8.667969 C 9.066406 8.679688 9.417969 8.6875 9.535156 8.6875 L 9.75 8.6875 L 9.75 8.1875 L 9.351562 8.195312 C 9.132812 8.199219 8.78125 8.207031 8.570312 8.210938 M 10.21875 8.4375 L 10.21875 8.6875 L 10.253906 8.6875 C 10.371094 8.6875 10.496094 8.554688 10.5 8.429688 L 10.5 8.339844 L 10.421875 8.265625 C 10.382812 8.222656 10.316406 8.1875 10.28125 8.1875 L 10.21875 8.1875 L 10.21875 8.4375 M 4.6875 8.4375 L 4.6875 8.65625 L 5.96875 8.65625 L 5.96875 8.21875 L 4.6875 8.21875 L 4.6875 8.4375 M 6.4375 8.4375 L 6.4375 8.65625 L 7.71875 8.65625 L 7.71875 8.21875 L 6.4375 8.21875 L 6.4375 8.4375 M 3.25 12.46875 L 3.25 15.53125 L 3.71875 15.53125 L 3.71875 9.40625 L 3.25 9.40625 L 3.25 12.46875 M 8.679688 9.429688 C 8.671875 9.441406 8.664062 10.820312 8.664062 12.492188 L 8.664062 15.53125 L 9.15625 15.53125 L 9.15625 9.40625 L 8.921875 9.40625 C 8.796875 9.40625 8.683594 9.417969 8.679688 9.429688 M 10.566406 9.710938 C 10.621094 9.808594 10.683594 9.914062 10.699219 9.945312 L 10.734375 10 L 10.933594 10 L 10.996094 9.917969 C 11.035156 9.871094 11.0625 9.804688 11.0625 9.765625 C 11.0625 9.726562 11.035156 9.660156 10.996094 9.613281 L 10.933594 9.53125 L 10.464844 9.53125 L 10.566406 9.710938 M 11.292969 10.941406 C 11.363281 11.066406 11.445312 11.179688 11.472656 11.195312 L 11.519531 11.226562 L 11.613281 11.183594 C 11.660156 11.160156 11.71875 11.101562 11.742188 11.058594 L 11.78125 10.972656 L 11.75 10.886719 C 11.730469 10.839844 11.691406 10.785156 11.664062 10.761719 L 11.609375 10.722656 L 11.382812 10.71875 L 11.160156 10.71875 L 11.292969 10.941406 M 11.878906 11.929688 C 11.878906 11.941406 11.9375 12.050781 12.011719 12.171875 L 12.144531 12.390625 L 12.386719 12.382812 L 12.445312 12.3125 C 12.476562 12.273438 12.5 12.203125 12.5 12.152344 L 12.5 12.058594 L 12.421875 11.984375 L 12.347656 11.90625 L 12.109375 11.90625 C 11.980469 11.90625 11.875 11.917969 11.878906 11.929688 M 12.570312 13.117188 C 12.578125 13.128906 12.644531 13.242188 12.71875 13.367188 L 12.851562 13.59375 L 12.964844 13.59375 C 13.097656 13.589844 13.171875 13.542969 13.21875 13.425781 L 13.25 13.339844 L 13.210938 13.253906 C 13.191406 13.210938 13.136719 13.15625 13.09375 13.132812 C 13.011719 13.09375 12.550781 13.078125 12.570312 13.117188 M 13.363281 14.460938 C 13.410156 14.542969 13.472656 14.648438 13.5 14.695312 L 13.546875 14.78125 L 13.808594 14.78125 L 13.871094 14.699219 C 13.910156 14.652344 13.9375 14.578125 13.9375 14.53125 L 13.9375 14.449219 L 13.863281 14.378906 L 13.792969 14.3125 L 13.273438 14.3125 L 13.363281 14.460938 "/>
<path style=" stroke:none;fill-rule:evenodd;fill:rgb(77.647059%,87.45098%,93.72549%);fill-opacity:1;" d="M 3.484375 5.6875 L 3.484375 6.796875 L 8.4375 6.796875 L 3.5 6.78125 L 3.484375 4.578125 L 3.484375 5.6875 M 8.921875 5.6875 C 8.921875 6.296875 8.925781 6.546875 8.929688 6.242188 C 8.933594 5.9375 8.933594 5.4375 8.929688 5.132812 C 8.925781 4.828125 8.921875 5.078125 8.921875 5.6875 "/>
<path style=" stroke:none;fill-rule:evenodd;fill:rgb(56.470588%,36.470588%,30.196078%);fill-opacity:1;" d="M 7.6875 8.796875 L 7.6875 8.9375 L 6.421875 8.953125 L 7.71875 8.96875 L 7.71875 8.8125 C 7.71875 8.726562 7.710938 8.65625 7.703125 8.65625 C 7.695312 8.65625 7.6875 8.71875 7.6875 8.796875 M 8.167969 8.796875 L 8.171875 8.953125 L 8.53125 8.953125 L 8.890625 8.957031 L 8.539062 8.945312 L 8.191406 8.933594 L 8.179688 8.789062 L 8.164062 8.640625 L 8.167969 8.796875 M 8.554688 8.679688 C 8.628906 8.6875 8.746094 8.6875 8.820312 8.679688 C 8.894531 8.671875 8.832031 8.667969 8.6875 8.667969 C 8.542969 8.667969 8.480469 8.671875 8.554688 8.679688 M 3.648438 8.960938 C 3.757812 8.964844 3.933594 8.964844 4.039062 8.960938 C 4.148438 8.953125 4.058594 8.949219 3.84375 8.949219 C 3.628906 8.949219 3.542969 8.953125 3.648438 8.960938 M 5.007812 8.960938 C 5.195312 8.964844 5.492188 8.964844 5.664062 8.960938 C 5.839844 8.957031 5.6875 8.949219 5.328125 8.949219 C 4.96875 8.949219 4.824219 8.957031 5.007812 8.960938 "/>
</g>
</svg>
