<?xml version="1.0" encoding="UTF-8"?>
<svg xmlns="http://www.w3.org/2000/svg" xmlns:xlink="http://www.w3.org/1999/xlink" width="32px" height="32px" viewBox="0 0 32 32" version="1.1">
<g id="surface1">
<path style=" stroke:none;fill-rule:nonzero;fill:rgb(100%,100%,100%);fill-opacity:1;" d="M 7.542969 0.113281 C 7.46875 0.195312 7.4375 0.355469 7.429688 0.695312 C 7.425781 0.949219 7.40625 1.09375 7.394531 1.011719 L 7.367188 0.875 L 5.601562 0.875 C 4.3125 0.875 3.820312 0.894531 3.761719 0.949219 C 3.65625 1.054688 3.65625 3.007812 3.761719 3.113281 C 3.820312 3.167969 4.3125 3.1875 5.605469 3.1875 L 7.375 3.1875 L 7.375 4.40625 C 7.375 5.332031 7.355469 5.632812 7.300781 5.648438 C 7.257812 5.664062 6.917969 5.71875 6.554688 5.773438 C 5.019531 6 4.519531 6.46875 4.695312 7.492188 C 4.738281 7.710938 4.800781 7.898438 4.851562 7.917969 C 4.925781 7.945312 6.398438 7.738281 6.800781 7.644531 L 6.9375 7.613281 L 6.9375 16.375 L 6.125 16.375 C 5.429688 16.375 5.3125 16.363281 5.3125 16.28125 C 5.3125 16.117188 5.019531 15.875 4.832031 15.875 C 4.585938 15.875 4.375 16.039062 4.375 16.226562 C 4.375 16.332031 4.335938 16.375 4.257812 16.375 C 4.195312 16.375 4.070312 16.429688 3.976562 16.507812 C 3.6875 16.730469 3.800781 17.25 4.15625 17.335938 C 4.304688 17.375 4.3125 17.386719 4.3125 17.949219 C 4.3125 18.488281 4.324219 18.539062 4.480469 18.699219 L 4.648438 18.875 L 6.5 18.875 L 6.5 20.21875 L 6.292969 20.320312 C 6.113281 20.40625 6.09375 20.445312 6.09375 20.695312 C 6.09375 20.929688 6.117188 20.980469 6.292969 21.09375 L 6.492188 21.21875 L 6.5 26.136719 L 6.5 31.0625 L 3.355469 31.0625 C 0.4375 31.0625 0.199219 31.070312 0.105469 31.167969 C -0.03125 31.324219 0 31.789062 0.164062 31.90625 C 0.269531 31.988281 2.28125 31.992188 16.019531 32 L 31.761719 32 L 31.882812 31.863281 C 32.03125 31.675781 32.039062 31.300781 31.886719 31.167969 C 31.789062 31.074219 31.550781 31.0625 29.855469 31.0625 C 28.363281 31.0625 27.9375 31.042969 27.9375 30.980469 C 27.9375 30.945312 27.757812 30.613281 27.53125 30.25 L 27.132812 29.59375 L 27.375 29.574219 C 27.820312 29.539062 28.03125 29.042969 27.730469 28.761719 C 27.605469 28.644531 27.511719 28.625 27.074219 28.625 L 26.570312 28.625 L 26.15625 27.929688 C 25.929688 27.550781 25.75 27.226562 25.75 27.210938 C 25.75 27.199219 25.84375 27.1875 25.960938 27.1875 C 26.125 27.1875 26.21875 27.144531 26.335938 26.992188 C 26.539062 26.757812 26.542969 26.617188 26.351562 26.394531 C 26.210938 26.238281 26.15625 26.21875 25.664062 26.1875 L 25.125 26.15625 L 24.726562 25.480469 L 24.324219 24.8125 L 24.507812 24.8125 C 24.929688 24.8125 25.164062 24.238281 24.855469 23.949219 C 24.730469 23.832031 24.636719 23.8125 24.210938 23.8125 L 23.71875 23.804688 L 23.304688 23.101562 C 22.9375 22.46875 22.914062 22.398438 23.039062 22.425781 C 23.207031 22.457031 23.5625 22.136719 23.5625 21.957031 C 23.5625 21.835938 23.40625 21.570312 23.289062 21.488281 C 23.25 21.460938 23.023438 21.4375 22.78125 21.4375 L 22.34375 21.4375 L 21.929688 20.730469 L 21.511719 20.03125 L 21.695312 20.011719 C 21.898438 19.988281 22.125 19.738281 22.125 19.53125 C 22.125 19.457031 22.070312 19.320312 21.992188 19.226562 C 21.875 19.074219 21.832031 19.0625 21.40625 19.0625 L 20.945312 19.0625 L 20.6875 18.632812 C 20.460938 18.242188 20.4375 18.15625 20.4375 17.789062 C 20.4375 17.429688 20.449219 17.375 20.550781 17.375 C 20.730469 17.375 21 17.050781 21 16.832031 C 21 16.617188 20.761719 16.375 20.5625 16.375 C 20.507812 16.375 20.417969 16.289062 20.367188 16.167969 C 20.320312 16.0625 20.207031 15.929688 20.113281 15.886719 C 19.875 15.773438 19.585938 15.925781 19.53125 16.1875 L 19.488281 16.375 L 17.886719 16.375 L 17.851562 13.605469 C 17.832031 12.085938 17.835938 9.695312 17.863281 8.28125 L 17.90625 5.726562 L 18.34375 5.644531 C 19.78125 5.394531 20.164062 5.3125 20.226562 5.21875 C 20.3125 5.101562 20.210938 4.601562 20.042969 4.273438 C 19.914062 4.023438 19.605469 3.761719 19.386719 3.710938 C 19.292969 3.695312 19.179688 3.664062 19.136719 3.648438 C 19.050781 3.625 17.949219 3.789062 17.78125 3.851562 C 17.699219 3.882812 17.6875 3.800781 17.6875 3.300781 C 17.6875 2.605469 17.625 2.5 17.207031 2.5 C 16.804688 2.5 16.75 2.613281 16.75 3.382812 L 16.75 4.039062 L 14.644531 4.398438 C 11.773438 4.886719 8.6875 5.429688 8.519531 5.46875 L 8.375 5.5 L 8.375 0.257812 L 8.210938 0.132812 C 8.007812 -0.03125 7.679688 -0.0390625 7.542969 0.113281 Z M 16.480469 6.96875 C 16.792969 7.1875 16.875 7.4375 16.875 8.179688 L 16.875 8.875 L 7.9375 8.875 L 7.9375 8.21875 L 9.894531 7.886719 C 16.539062 6.75 16.230469 6.792969 16.480469 6.96875 Z M 16.875 11.730469 L 16.875 13.644531 L 13.832031 13.605469 C 12.148438 13.582031 10.125 13.5625 9.332031 13.5625 L 7.875 13.5625 L 7.875 9.8125 L 16.875 9.8125 Z M 16.875 15.9375 L 16.875 16.375 L 16.59375 16.375 C 16.355469 16.375 16.3125 16.355469 16.3125 16.257812 C 16.3125 16.117188 16.039062 15.875 15.875 15.875 C 15.710938 15.875 15.4375 16.117188 15.4375 16.257812 C 15.4375 16.375 15.386719 16.375 14.144531 16.363281 L 12.855469 16.34375 L 12.792969 16.15625 C 12.71875 15.925781 12.648438 15.875 12.398438 15.875 C 12.199219 15.875 12.09375 15.957031 11.96875 16.210938 C 11.90625 16.335938 11.855469 16.34375 10.667969 16.363281 C 9.550781 16.375 9.429688 16.367188 9.394531 16.269531 C 9.207031 15.78125 8.707031 15.710938 8.492188 16.144531 C 8.414062 16.304688 8.355469 16.351562 8.167969 16.363281 L 7.9375 16.382812 L 7.9375 15.5 L 16.875 15.5 Z M 16.925781 17.34375 C 16.988281 17.335938 16.992188 17.34375 16.957031 17.355469 C 16.90625 17.375 16.875 17.488281 16.875 17.632812 L 16.875 17.875 L 17.875 17.875 L 17.875 17.375 L 19.5 17.375 L 19.5 17.855469 L 18.082031 17.898438 C 17.292969 17.925781 16.601562 17.925781 16.53125 17.898438 C 16.355469 17.835938 16.3125 17.757812 16.3125 17.492188 L 16.3125 17.269531 L 16.570312 17.3125 C 16.707031 17.335938 16.867188 17.355469 16.925781 17.34375 Z M 8.4375 17.625 L 8.4375 17.9375 L 8.113281 17.929688 C 7.929688 17.929688 7.820312 17.914062 7.863281 17.894531 C 7.898438 17.882812 7.9375 17.757812 7.9375 17.625 C 7.9375 17.367188 7.988281 17.324219 8.269531 17.320312 C 8.429688 17.3125 8.4375 17.324219 8.4375 17.625 Z M 11.914062 17.636719 L 11.917969 17.9375 L 9.375 17.9375 L 9.375 17.300781 L 10.644531 17.324219 L 11.90625 17.34375 Z M 15.382812 17.605469 L 15.363281 17.875 L 15.070312 17.875 C 14.90625 17.875 14.34375 17.894531 13.824219 17.917969 L 12.875 17.957031 L 12.875 17.34375 L 14.144531 17.335938 L 15.40625 17.335938 Z M 6.9375 17.617188 C 6.9375 17.84375 6.957031 17.867188 7.113281 17.894531 C 7.207031 17.90625 7.15625 17.914062 7.007812 17.898438 C 6.855469 17.886719 6.414062 17.875 6.023438 17.875 L 5.3125 17.875 L 5.3125 17.375 L 6.9375 17.375 Z M 17.3125 19.53125 L 17.3125 20.1875 L 7.4375 20.1875 L 7.4375 18.875 L 17.3125 18.875 Z M 20.488281 20.230469 C 20.929688 20.980469 22.363281 23.40625 23.667969 25.625 C 24.976562 27.84375 26.199219 29.914062 26.386719 30.226562 C 26.574219 30.53125 26.761719 30.851562 26.804688 30.925781 L 26.882812 31.0625 L 18.3125 31.0625 L 18.3125 26.132812 C 18.3125 21.242188 18.3125 21.195312 18.4375 21.15625 C 18.507812 21.132812 18.605469 21.03125 18.664062 20.925781 C 18.757812 20.742188 18.757812 20.710938 18.664062 20.511719 C 18.605469 20.394531 18.5 20.289062 18.4375 20.269531 C 18.324219 20.238281 18.3125 20.179688 18.3125 19.554688 L 18.3125 18.875 L 19.679688 18.875 Z M 17.3125 21.761719 L 17.304688 22.34375 L 14.855469 23.976562 L 12.40625 25.605469 L 9.917969 23.949219 L 7.4375 22.292969 L 7.4375 21.1875 L 17.3125 21.1875 Z M 9.554688 24.894531 L 11.511719 26.199219 L 9.507812 27.539062 C 8.40625 28.273438 7.488281 28.875 7.46875 28.875 C 7.449219 28.875 7.4375 27.664062 7.4375 26.179688 C 7.4375 24.050781 7.457031 23.5 7.519531 23.539062 C 7.554688 23.5625 8.476562 24.175781 9.554688 24.894531 Z M 17.3125 26.21875 L 17.3125 28.875 L 15.332031 27.554688 C 14.238281 26.824219 13.332031 26.226562 13.324219 26.210938 C 13.292969 26.195312 17.199219 23.574219 17.269531 23.570312 C 17.292969 23.5625 17.3125 24.757812 17.3125 26.21875 Z M 14.988281 28.511719 C 16.164062 29.292969 17.167969 29.9375 17.21875 29.9375 C 17.292969 29.9375 17.3125 30.050781 17.3125 30.5 L 17.3125 31.0625 L 7.4375 31.0625 L 7.4375 30.085938 L 9.917969 28.449219 L 12.394531 26.8125 L 12.617188 26.949219 C 12.742188 27.023438 13.804688 27.730469 14.988281 28.511719 Z M 14.988281 28.511719 "/>
</g>
</svg>
