<?xml version="1.0" standalone="no"?>
<!DOCTYPE svg PUBLIC "-//W3C//DTD SVG 20010904//EN"
 "http://www.w3.org/TR/2001/REC-SVG-20010904/DTD/svg10.dtd">
<svg version="1.0" xmlns="http://www.w3.org/2000/svg"
 width="512.000000pt" height="512.000000pt" viewBox="0 0 512.000000 512.000000"
 preserveAspectRatio="xMidYMid meet">

<g transform="translate(0.000000,512.000000) scale(0.100000,-0.100000)"
fill="#ffffff" stroke="none">
<path d="M1207 5102 c-12 -13 -17 -39 -18 -93 -1 -41 -4 -64 -6 -51 l-4 22
-283 0 c-206 0 -285 -3 -294 -12 -17 -17 -17 -329 0 -346 9 -9 88 -12 295 -12
l283 0 0 -195 c0 -148 -3 -196 -12 -199 -7 -2 -61 -11 -119 -20 -246 -36 -326
-111 -298 -275 7 -35 17 -65 25 -68 12 -4 248 29 312 44 l22 5 0 -701 0 -701
-130 0 c-111 0 -130 2 -130 15 0 26 -47 65 -77 65 -39 0 -73 -26 -73 -56 0
-17 -6 -24 -19 -24 -10 0 -30 -9 -45 -21 -46 -36 -28 -119 29 -133 24 -6 25
-8 25 -98 0 -86 2 -94 27 -120 l27 -28 148 0 148 0 0 -107 0 -108 -33 -16
c-29 -14 -32 -20 -32 -60 0 -38 4 -46 32 -64 l32 -20 1 -787 0 -788 -503 0
c-467 0 -505 -1 -520 -17 -22 -25 -17 -99 9 -118 17 -13 339 -14 2537 -15
l2519 0 19 22 c24 30 25 90 1 111 -16 15 -54 17 -325 17 -239 0 -307 3 -307
13 0 6 -29 59 -65 117 l-64 105 39 3 c71 6 105 85 57 130 -20 19 -35 22 -105
22 l-81 0 -66 111 c-36 61 -65 113 -65 115 0 2 15 4 34 4 26 0 41 7 60 31 32
38 33 60 2 96 -22 25 -31 28 -110 33 l-86 5 -64 108 -64 107 29 0 c68 0 105
92 56 138 -20 19 -35 22 -103 22 l-79 1 -66 113 c-59 101 -63 112 -43 108 27
-5 84 46 84 75 0 19 -25 62 -44 75 -6 4 -42 8 -81 8 l-70 0 -66 113 -67 112
29 3 c33 4 69 44 69 77 0 12 -9 34 -21 49 -19 24 -26 26 -94 26 l-74 0 -41 69
c-36 62 -40 76 -40 135 0 57 2 66 18 66 29 0 72 52 72 87 0 34 -38 73 -70 73
-9 0 -23 14 -31 33 -8 17 -26 38 -41 45 -38 18 -84 -6 -93 -48 l-7 -30 -128 0
-128 0 -6 443 c-3 243 -2 626 2 852 l7 409 70 13 c230 40 291 53 301 68 14 19
-2 99 -29 151 -21 40 -70 82 -105 90 -15 3 -33 8 -40 10 -14 4 -190 -22 -217
-32 -13 -5 -15 8 -15 88 0 111 -10 128 -77 128 -64 0 -73 -18 -73 -141 l0
-105 -337 -58 c-459 -78 -953 -165 -980 -171 l-23 -5 0 419 0 420 -26 20 c-33
26 -85 27 -107 3z m1430 -1097 c50 -35 63 -75 63 -194 l0 -111 -715 0 -715 0
0 53 0 52 313 53 c1063 182 1014 175 1054 147z m63 -762 l0 -306 -487 6 c-269
4 -593 7 -720 7 l-233 0 0 300 0 300 720 0 720 0 0 -307z m0 -673 l0 -70 -45
0 c-38 0 -45 3 -45 19 0 22 -44 61 -70 61 -26 0 -70 -39 -70 -61 0 -19 -8 -19
-207 -17 l-206 3 -10 30 c-12 37 -23 45 -63 45 -32 0 -49 -13 -69 -54 -10 -20
-18 -21 -208 -24 -179 -2 -198 -1 -204 15 -30 78 -110 89 -144 20 -13 -26 -22
-33 -52 -35 l-37 -3 0 70 0 71 715 0 715 0 0 -70z m8 -225 c10 1 11 0 5 -2 -8
-3 -13 -21 -13 -44 l0 -39 80 0 80 0 0 40 0 40 130 0 130 0 0 -39 0 -38 -227
-7 c-126 -4 -237 -4 -248 0 -28 10 -35 23 -35 65 l0 36 41 -7 c22 -4 48 -7 57
-5z m-1358 -45 l0 -50 -52 1 c-29 0 -47 3 -40 6 6 2 12 22 12 43 0 41 8 48 53
49 26 1 27 -1 27 -49z m556 -2 l1 -48 -204 0 -203 0 0 51 0 51 203 -4 202 -3
1 -47z m555 5 l-3 -43 -47 0 c-26 0 -116 -3 -199 -7 l-152 -6 0 49 0 49 203 1
202 0 -4 -43z m-1351 -2 c0 -36 3 -40 28 -44 15 -2 7 -3 -17 -1 -24 2 -95 4
-157 4 l-114 0 0 40 0 40 130 0 130 0 0 -39z m1660 -306 l0 -105 -790 0 -790
0 0 105 0 105 790 0 790 0 0 -105z m508 -112 c71 -120 300 -508 509 -863 209
-355 405 -686 435 -736 30 -49 60 -100 67 -112 l12 -22 -686 0 -685 0 0 789
c0 782 0 790 20 796 11 4 27 20 36 37 15 29 15 34 0 66 -9 19 -26 36 -36 39
-18 5 -20 14 -20 114 l0 109 110 0 109 0 129 -217z m-508 -245 l-1 -93 -392
-261 -392 -261 -398 265 -397 265 0 89 0 88 790 0 790 0 0 -92z m-1241 -501
l313 -209 -321 -214 c-176 -118 -323 -214 -326 -214 -3 0 -5 194 -5 431 0 341
3 429 13 423 6 -4 153 -102 326 -217z m1241 -212 l0 -425 -317 211 c-175 117
-320 213 -321 215 -5 3 620 422 631 423 4 1 7 -190 7 -424z m-372 -367 c188
-125 349 -228 357 -228 12 0 15 -18 15 -90 l0 -90 -790 0 -790 0 0 78 0 78
397 262 396 262 36 -22 c20 -12 190 -125 379 -250z"/>
</g>
</svg>
