<?xml version="1.0" encoding="UTF-8"?>
<svg xmlns="http://www.w3.org/2000/svg" xmlns:xlink="http://www.w3.org/1999/xlink" width="16px" height="16px" viewBox="0 0 16 16" version="1.1">
<g id="surface1">
<path style=" stroke:none;fill-rule:nonzero;fill:rgb(100%,100%,100%);fill-opacity:1;" d="M 3.773438 0.0546875 C 3.734375 0.0976562 3.71875 0.179688 3.714844 0.347656 C 3.710938 0.476562 3.703125 0.546875 3.695312 0.507812 L 3.683594 0.4375 L 2.800781 0.4375 C 2.15625 0.4375 1.910156 0.445312 1.882812 0.476562 C 1.828125 0.527344 1.828125 1.503906 1.882812 1.554688 C 1.910156 1.585938 2.15625 1.59375 2.804688 1.59375 L 3.6875 1.59375 L 3.6875 2.203125 C 3.6875 2.664062 3.679688 2.816406 3.648438 2.824219 C 3.628906 2.832031 3.460938 2.859375 3.277344 2.886719 C 2.507812 3 2.257812 3.234375 2.347656 3.746094 C 2.367188 3.855469 2.398438 3.949219 2.425781 3.960938 C 2.460938 3.972656 3.199219 3.867188 3.398438 3.820312 L 3.46875 3.804688 L 3.46875 8.1875 L 3.0625 8.1875 C 2.714844 8.1875 2.65625 8.179688 2.65625 8.140625 C 2.65625 8.058594 2.507812 7.9375 2.414062 7.9375 C 2.292969 7.9375 2.1875 8.019531 2.1875 8.113281 C 2.1875 8.164062 2.167969 8.1875 2.128906 8.1875 C 2.097656 8.1875 2.035156 8.214844 1.988281 8.253906 C 1.84375 8.367188 1.898438 8.625 2.078125 8.667969 C 2.152344 8.6875 2.15625 8.695312 2.15625 8.976562 C 2.15625 9.242188 2.164062 9.269531 2.242188 9.351562 L 2.324219 9.4375 L 3.25 9.4375 L 3.25 10.109375 L 3.148438 10.160156 C 3.054688 10.203125 3.046875 10.222656 3.046875 10.347656 C 3.046875 10.464844 3.058594 10.492188 3.148438 10.546875 L 3.246094 10.609375 L 3.25 13.070312 L 3.25 15.53125 L 1.679688 15.53125 C 0.21875 15.53125 0.101562 15.535156 0.0546875 15.585938 C -0.015625 15.664062 0 15.894531 0.0820312 15.953125 C 0.132812 15.992188 1.140625 15.996094 8.007812 16 L 15.882812 16 L 15.941406 15.929688 C 16.015625 15.835938 16.019531 15.648438 15.945312 15.585938 C 15.894531 15.539062 15.773438 15.53125 14.929688 15.53125 C 14.179688 15.53125 13.96875 15.523438 13.96875 15.492188 C 13.96875 15.472656 13.878906 15.304688 13.765625 15.125 L 13.566406 14.796875 L 13.6875 14.789062 C 13.910156 14.769531 14.015625 14.523438 13.867188 14.382812 C 13.804688 14.320312 13.757812 14.3125 13.539062 14.3125 L 13.285156 14.3125 L 13.078125 13.964844 C 12.964844 13.773438 12.875 13.613281 12.875 13.605469 C 12.875 13.601562 12.921875 13.59375 12.980469 13.59375 C 13.0625 13.59375 13.109375 13.570312 13.167969 13.496094 C 13.269531 13.378906 13.273438 13.308594 13.175781 13.195312 C 13.105469 13.117188 13.078125 13.109375 12.832031 13.09375 L 12.5625 13.078125 L 12.164062 12.40625 L 12.253906 12.40625 C 12.464844 12.40625 12.582031 12.117188 12.429688 11.976562 C 12.367188 11.914062 12.320312 11.90625 12.105469 11.90625 L 11.859375 11.902344 L 11.652344 11.550781 C 11.46875 11.234375 11.457031 11.199219 11.519531 11.210938 C 11.601562 11.226562 11.78125 11.070312 11.78125 10.976562 C 11.78125 10.917969 11.703125 10.785156 11.644531 10.742188 C 11.625 10.730469 11.511719 10.71875 11.390625 10.71875 L 11.171875 10.71875 L 10.757812 10.015625 L 10.847656 10.007812 C 10.949219 9.992188 11.0625 9.867188 11.0625 9.765625 C 11.0625 9.726562 11.035156 9.660156 10.996094 9.613281 C 10.9375 9.539062 10.914062 9.53125 10.703125 9.53125 L 10.472656 9.53125 L 10.34375 9.316406 C 10.230469 9.121094 10.21875 9.078125 10.21875 8.894531 C 10.21875 8.714844 10.226562 8.6875 10.273438 8.6875 C 10.367188 8.6875 10.5 8.523438 10.5 8.414062 C 10.5 8.308594 10.382812 8.1875 10.28125 8.1875 C 10.253906 8.1875 10.210938 8.144531 10.183594 8.085938 C 10.160156 8.03125 10.101562 7.964844 10.054688 7.945312 C 9.9375 7.886719 9.792969 7.960938 9.765625 8.09375 L 9.742188 8.1875 L 8.945312 8.1875 L 8.925781 6.804688 C 8.914062 6.042969 8.917969 4.847656 8.929688 4.140625 L 8.953125 2.863281 L 9.171875 2.820312 C 9.890625 2.695312 10.082031 2.65625 10.113281 2.609375 C 10.15625 2.550781 10.105469 2.300781 10.023438 2.136719 C 9.957031 2.011719 9.804688 1.882812 9.695312 1.855469 C 9.648438 1.847656 9.589844 1.832031 9.570312 1.824219 C 9.523438 1.8125 8.976562 1.894531 8.890625 1.925781 C 8.851562 1.941406 8.84375 1.898438 8.84375 1.648438 C 8.84375 1.304688 8.8125 1.25 8.601562 1.25 C 8.402344 1.25 8.375 1.304688 8.375 1.691406 L 8.375 2.019531 L 7.320312 2.199219 C 5.886719 2.445312 4.34375 2.714844 4.257812 2.734375 L 4.1875 2.75 L 4.1875 0.128906 L 4.105469 0.0664062 C 4.003906 -0.015625 3.839844 -0.0195312 3.773438 0.0546875 Z M 8.242188 3.484375 C 8.398438 3.59375 8.4375 3.71875 8.4375 4.089844 L 8.4375 4.4375 L 3.96875 4.4375 L 3.96875 4.109375 L 4.945312 3.945312 C 8.269531 3.375 8.117188 3.398438 8.242188 3.484375 Z M 8.4375 5.867188 L 8.4375 6.820312 L 6.914062 6.804688 C 6.074219 6.789062 5.0625 6.78125 4.664062 6.78125 L 3.9375 6.78125 L 3.9375 4.90625 L 8.4375 4.90625 Z M 8.4375 7.96875 L 8.4375 8.1875 L 8.296875 8.1875 C 8.179688 8.1875 8.15625 8.179688 8.15625 8.128906 C 8.15625 8.058594 8.019531 7.9375 7.9375 7.9375 C 7.855469 7.9375 7.71875 8.058594 7.71875 8.128906 C 7.71875 8.1875 7.695312 8.1875 7.070312 8.179688 L 6.429688 8.171875 L 6.398438 8.078125 C 6.359375 7.960938 6.324219 7.9375 6.199219 7.9375 C 6.101562 7.9375 6.046875 7.976562 5.984375 8.105469 C 5.953125 8.167969 5.929688 8.171875 5.335938 8.179688 C 4.773438 8.1875 4.714844 8.183594 4.695312 8.132812 C 4.601562 7.890625 4.351562 7.855469 4.246094 8.070312 C 4.207031 8.152344 4.179688 8.175781 4.085938 8.179688 L 3.96875 8.191406 L 3.96875 7.75 L 8.4375 7.75 Z M 8.460938 8.671875 C 8.492188 8.667969 8.496094 8.671875 8.476562 8.679688 C 8.453125 8.6875 8.4375 8.742188 8.4375 8.816406 L 8.4375 8.9375 L 8.9375 8.9375 L 8.9375 8.6875 L 9.75 8.6875 L 9.75 8.929688 L 9.039062 8.949219 C 8.648438 8.960938 8.300781 8.960938 8.265625 8.949219 C 8.179688 8.917969 8.15625 8.878906 8.15625 8.746094 L 8.15625 8.632812 L 8.285156 8.65625 C 8.351562 8.667969 8.433594 8.679688 8.460938 8.671875 Z M 4.21875 8.8125 L 4.21875 8.96875 L 4.054688 8.964844 C 3.964844 8.964844 3.910156 8.957031 3.929688 8.945312 C 3.949219 8.941406 3.96875 8.878906 3.96875 8.8125 C 3.96875 8.683594 3.992188 8.664062 4.132812 8.660156 C 4.214844 8.65625 4.21875 8.664062 4.21875 8.8125 Z M 5.957031 8.820312 L 5.960938 8.96875 L 4.6875 8.96875 L 4.6875 8.648438 L 5.320312 8.664062 L 5.953125 8.671875 Z M 7.691406 8.804688 L 7.679688 8.9375 L 7.535156 8.9375 C 7.453125 8.9375 7.171875 8.945312 6.914062 8.960938 L 6.4375 8.976562 L 6.4375 8.671875 L 7.070312 8.667969 L 7.703125 8.667969 Z M 3.46875 8.808594 C 3.46875 8.921875 3.476562 8.933594 3.554688 8.945312 C 3.601562 8.953125 3.578125 8.957031 3.503906 8.949219 C 3.429688 8.945312 3.207031 8.9375 3.011719 8.9375 L 2.65625 8.9375 L 2.65625 8.6875 L 3.46875 8.6875 Z M 8.65625 9.765625 L 8.65625 10.09375 L 3.71875 10.09375 L 3.71875 9.4375 L 8.65625 9.4375 Z M 10.242188 10.117188 C 10.464844 10.492188 11.179688 11.703125 11.835938 12.8125 C 12.488281 13.921875 13.101562 14.957031 13.195312 15.113281 C 13.289062 15.265625 13.382812 15.425781 13.402344 15.460938 L 13.441406 15.53125 L 9.15625 15.53125 L 9.15625 13.066406 C 9.15625 10.621094 9.15625 10.597656 9.21875 10.578125 C 9.253906 10.566406 9.304688 10.515625 9.332031 10.460938 C 9.378906 10.371094 9.378906 10.355469 9.332031 10.257812 C 9.304688 10.195312 9.25 10.144531 9.21875 10.132812 C 9.164062 10.117188 9.15625 10.089844 9.15625 9.777344 L 9.15625 9.4375 L 9.839844 9.4375 Z M 8.65625 10.882812 L 8.652344 11.171875 L 7.429688 11.988281 L 6.203125 12.804688 L 3.71875 11.148438 L 3.71875 10.59375 L 8.65625 10.59375 Z M 4.777344 12.445312 L 5.757812 13.101562 L 4.753906 13.769531 C 4.203125 14.136719 3.742188 14.4375 3.734375 14.4375 C 3.726562 14.4375 3.71875 13.832031 3.71875 13.089844 C 3.71875 12.023438 3.726562 11.75 3.757812 11.769531 C 3.777344 11.78125 4.238281 12.085938 4.777344 12.445312 Z M 8.65625 13.109375 L 8.65625 14.4375 L 7.664062 13.777344 C 7.117188 13.414062 6.664062 13.113281 6.664062 13.105469 C 6.648438 13.097656 8.601562 11.789062 8.632812 11.785156 C 8.648438 11.78125 8.65625 12.378906 8.65625 13.109375 Z M 7.492188 14.257812 C 8.082031 14.648438 8.585938 14.96875 8.609375 14.96875 C 8.648438 14.96875 8.65625 15.023438 8.65625 15.25 L 8.65625 15.53125 L 3.71875 15.53125 L 3.71875 15.042969 L 4.960938 14.226562 L 6.195312 13.40625 L 6.308594 13.476562 C 6.371094 13.511719 6.902344 13.867188 7.492188 14.257812 Z M 7.492188 14.257812 "/>
</g>
</svg>
